# xmcd
#
# Track frame offsets: 
#        150
#        42932
#        67832
#        87032
#        98095
#        116982
#        135682
#        146470
#        168257
#        186820
#        205720
#        217697
#
# Disc length: 3144 seconds
#
# Revision: 2
# Processed by: cddbd v1.5.2PL0 Copyright (c) Steve Scherf et al.
# Submitted via: ExactAudioCopy v0.95b4
#
DISCID=9d0c460c
DTITLE=Shuggie Otis - Shuggie Otis Plays the Blues
DYEAR=1994
DGENRE=Blues
TTITLE0=1215 Slow Goonbash Blues
TTITLE1=Shuggie's Boogie
TTITLE2=Gospel Groove
TTITLE3=The Hawks
TTITLE4=Me And My Woman
TTITLE5=I Can Stand To See You Die
TTITLE6=I Got the Walkin' Blues
TTITLE7=Purple (Edited Version)
TTITLE8=Cold Shot
TTITLE9=Sweet Thang
TTITLE10=Bootie Cooler
TTITLE11=Shuggie's Old Time Slide Boogie
EXTD=
EXTT0=
EXTT1=
EXTT2=
EXTT3=
EXTT4=
EXTT5=
EXTT6=
EXTT7=
EXTT8=
EXTT9=
EXTT10=
EXTT11=
PLAYORDER=
